<svg width="56" height="56" viewBox="0 0 56 56" fill="none" xmlns="http://www.w3.org/2000/svg">
<path d="M10.3158 30.9474C8.69474 30.9474 7.36842 32.2737 7.36842 33.8947C7.36842 35.5158 8.69474 36.8421 10.3158 36.8421C11.9368 36.8421 13.2632 35.5158 13.2632 33.8947C13.2632 32.2737 11.9368 30.9474 10.3158 30.9474ZM10.3158 42.7368C8.69474 42.7368 7.36842 44.0632 7.36842 45.6842C7.36842 47.3053 8.69474 48.6316 10.3158 48.6316C11.9368 48.6316 13.2632 47.3053 13.2632 45.6842C13.2632 44.0632 11.9368 42.7368 10.3158 42.7368ZM10.3158 19.1579C8.69474 19.1579 7.36842 20.4842 7.36842 22.1053C7.36842 23.7263 8.69474 25.0526 10.3158 25.0526C11.9368 25.0526 13.2632 23.7263 13.2632 22.1053C13.2632 20.4842 11.9368 19.1579 10.3158 19.1579ZM1.47368 20.6316C0.648421 20.6316 0 21.28 0 22.1053C0 22.9305 0.648421 23.5789 1.47368 23.5789C2.29895 23.5789 2.94737 22.9305 2.94737 22.1053C2.94737 21.28 2.29895 20.6316 1.47368 20.6316ZM10.3158 7.36842C8.69474 7.36842 7.36842 8.69474 7.36842 10.3158C7.36842 11.9368 8.69474 13.2632 10.3158 13.2632C11.9368 13.2632 13.2632 11.9368 13.2632 10.3158C13.2632 8.69474 11.9368 7.36842 10.3158 7.36842ZM54.5263 23.5789C55.3516 23.5789 56 22.9305 56 22.1053C56 21.28 55.3516 20.6316 54.5263 20.6316C53.7011 20.6316 53.0526 21.28 53.0526 22.1053C53.0526 22.9305 53.7011 23.5789 54.5263 23.5789ZM33.8947 13.2632C35.5158 13.2632 36.8421 11.9368 36.8421 10.3158C36.8421 8.69474 35.5158 7.36842 33.8947 7.36842C32.2737 7.36842 30.9474 8.69474 30.9474 10.3158C30.9474 11.9368 32.2737 13.2632 33.8947 13.2632ZM33.8947 2.94737C34.72 2.94737 35.3684 2.29895 35.3684 1.47368C35.3684 0.648421 34.72 0 33.8947 0C33.0695 0 32.4211 0.648421 32.4211 1.47368C32.4211 2.29895 33.0695 2.94737 33.8947 2.94737ZM1.47368 32.4211C0.648421 32.4211 0 33.0695 0 33.8947C0 34.72 0.648421 35.3684 1.47368 35.3684C2.29895 35.3684 2.94737 34.72 2.94737 33.8947C2.94737 33.0695 2.29895 32.4211 1.47368 32.4211ZM22.1053 53.0526C21.28 53.0526 20.6316 53.7011 20.6316 54.5263C20.6316 55.3516 21.28 56 22.1053 56C22.9305 56 23.5789 55.3516 23.5789 54.5263C23.5789 53.7011 22.9305 53.0526 22.1053 53.0526ZM22.1053 2.94737C22.9305 2.94737 23.5789 2.29895 23.5789 1.47368C23.5789 0.648421 22.9305 0 22.1053 0C21.28 0 20.6316 0.648421 20.6316 1.47368C20.6316 2.29895 21.28 2.94737 22.1053 2.94737ZM22.1053 13.2632C23.7263 13.2632 25.0526 11.9368 25.0526 10.3158C25.0526 8.69474 23.7263 7.36842 22.1053 7.36842C20.4842 7.36842 19.1579 8.69474 19.1579 10.3158C19.1579 11.9368 20.4842 13.2632 22.1053 13.2632ZM22.1053 29.4737C19.6589 29.4737 17.6842 31.4484 17.6842 33.8947C17.6842 36.3411 19.6589 38.3158 22.1053 38.3158C24.5516 38.3158 26.5263 36.3411 26.5263 33.8947C26.5263 31.4484 24.5516 29.4737 22.1053 29.4737ZM45.6842 30.9474C44.0632 30.9474 42.7368 32.2737 42.7368 33.8947C42.7368 35.5158 44.0632 36.8421 45.6842 36.8421C47.3053 36.8421 48.6316 35.5158 48.6316 33.8947C48.6316 32.2737 47.3053 30.9474 45.6842 30.9474ZM45.6842 42.7368C44.0632 42.7368 42.7368 44.0632 42.7368 45.6842C42.7368 47.3053 44.0632 48.6316 45.6842 48.6316C47.3053 48.6316 48.6316 47.3053 48.6316 45.6842C48.6316 44.0632 47.3053 42.7368 45.6842 42.7368ZM45.6842 19.1579C44.0632 19.1579 42.7368 20.4842 42.7368 22.1053C42.7368 23.7263 44.0632 25.0526 45.6842 25.0526C47.3053 25.0526 48.6316 23.7263 48.6316 22.1053C48.6316 20.4842 47.3053 19.1579 45.6842 19.1579ZM45.6842 7.36842C44.0632 7.36842 42.7368 8.69474 42.7368 10.3158C42.7368 11.9368 44.0632 13.2632 45.6842 13.2632C47.3053 13.2632 48.6316 11.9368 48.6316 10.3158C48.6316 8.69474 47.3053 7.36842 45.6842 7.36842ZM54.5263 32.4211C53.7011 32.4211 53.0526 33.0695 53.0526 33.8947C53.0526 34.72 53.7011 35.3684 54.5263 35.3684C55.3516 35.3684 56 34.72 56 33.8947C56 33.0695 55.3516 32.4211 54.5263 32.4211ZM33.8947 42.7368C32.2737 42.7368 30.9474 44.0632 30.9474 45.6842C30.9474 47.3053 32.2737 48.6316 33.8947 48.6316C35.5158 48.6316 36.8421 47.3053 36.8421 45.6842C36.8421 44.0632 35.5158 42.7368 33.8947 42.7368ZM33.8947 53.0526C33.0695 53.0526 32.4211 53.7011 32.4211 54.5263C32.4211 55.3516 33.0695 56 33.8947 56C34.72 56 35.3684 55.3516 35.3684 54.5263C35.3684 53.7011 34.72 53.0526 33.8947 53.0526ZM22.1053 17.6842C19.6589 17.6842 17.6842 19.6589 17.6842 22.1053C17.6842 24.5516 19.6589 26.5263 22.1053 26.5263C24.5516 26.5263 26.5263 24.5516 26.5263 22.1053C26.5263 19.6589 24.5516 17.6842 22.1053 17.6842ZM22.1053 42.7368C20.4842 42.7368 19.1579 44.0632 19.1579 45.6842C19.1579 47.3053 20.4842 48.6316 22.1053 48.6316C23.7263 48.6316 25.0526 47.3053 25.0526 45.6842C25.0526 44.0632 23.7263 42.7368 22.1053 42.7368ZM33.8947 29.4737C31.4484 29.4737 29.4737 31.4484 29.4737 33.8947C29.4737 36.3411 31.4484 38.3158 33.8947 38.3158C36.3411 38.3158 38.3158 36.3411 38.3158 33.8947C38.3158 31.4484 36.3411 29.4737 33.8947 29.4737ZM33.8947 17.6842C31.4484 17.6842 29.4737 19.6589 29.4737 22.1053C29.4737 24.5516 31.4484 26.5263 33.8947 26.5263C36.3411 26.5263 38.3158 24.5516 38.3158 22.1053C38.3158 19.6589 36.3411 17.6842 33.8947 17.6842Z" fill="#FFCF3D"/>
</svg>
